<?xml version="1.0" encoding="utf-8"?>
<!-- Generator: Adobe Illustrator 21.0.0, SVG Export Plug-In . SVG Version: 6.00 Build 0)  -->
<svg version="1.1" id="Layer_1" xmlns="http://www.w3.org/2000/svg" xmlns:xlink="http://www.w3.org/1999/xlink" x="0px" y="0px"
	 viewBox="0 0 177.1 59.2" style="enable-background:new 0 0 177.1 59.2;" xml:space="preserve">
<path style="fill:#242530;" d="M0,45.3L26.7,3.7L14.8,4.1c-6.3,0.3-10,4.4-13,9.5l-0.5-0.2L4.1,2.8h28.5v0.6L5.9,45l13.9-0.4
	c6.2-0.2,10-4.6,13.1-10.2l0.5,0.2l-2.9,11.3H0V45.3z"/>
<path style="fill:#242530;" d="M50.2,46.8c-7.8,0-13-6-13-14.4C37.2,23,43.8,17,50.6,17c5.9-0.1,10.8,4.7,10.8,10.6
	c0,0.3,0,0.5,0,0.8H41.8c0,0.3-0.1,0.7-0.1,1v1c0,8,3.8,12.7,10.4,12.7c3.6,0.1,7-1.5,9.1-4.4l0.3,0.2C60,43.7,55.4,47,50.2,46.8z
	 M41.9,27.4l14.7-0.3v-0.5c0-5.9-2.2-8.6-6.2-8.6C45.7,18,42.7,21.8,41.9,27.4L41.9,27.4z"/>
<path style="fill:#242530;" d="M66.4,59.1c1.1-2.5,1.3-4.9,1.3-8.9V25.8c0.1-2.3-0.9-4.4-2.6-5.9v-0.1l6.7-3.1v5.2l0.4,0.1
	c2.2-3.2,5.9-5.1,9.8-5c7,0,11.9,5.8,11.9,14.3c0,8.2-4.8,15.5-14.6,15.5c-2.5,0.1-5-0.5-7.3-1.8v5.1c0,4,0.1,6.4,1.3,9v0.1h-6.9
	L66.4,59.1z M89.1,32.2c0-8.3-4.1-12.4-9.5-12.4c-2.9,0-5.7,1.2-7.6,3.4v17c1.6,3.8,4.5,5.5,7.7,5.5C85.3,45.7,89.1,40.5,89.1,32.2z
	"/>
<path style="fill:#242530;" d="M98.7,45.8c1.1-2.5,1.3-4.9,1.3-9V8.8c0.1-2.3-0.9-4.4-2.6-5.9V2.8l6.9-2.8v22.2
	c2.8-3.3,6.1-5.2,10.1-5.2c5.4,0,8.3,3.2,8.3,8.6v11.3c0,4.1,0.1,6.5,1.3,9v0.1h-6.9v-0.1c1.1-2.6,1.3-5,1.3-9V26.5
	c0-3.6-1.6-6.7-6-6.7c-3.1,0-6,1.3-8.1,3.5v13.5c0,4,0.1,6.4,1.4,9v0.1h-7L98.7,45.8z"/>
<path style="fill:#242530;" d="M136.5,48.3l0.8-2.2l-8.3-21.7c-1.4-3.6-2.1-5.1-3.5-6.4v-0.1h8.3V18c-1,1.1-1.4,3.2-0.1,6.8
	l5.8,15.4l5.7-15.2c1.2-3.4,0.7-5.8-0.8-7v-0.1h6.2V18c-1.9,1.7-2.8,3.2-4,6.7L137,49.8c-2.7,6.8-5.7,8.9-9.7,9.4l-0.1-4.4
	C131.3,54.8,135.1,52.2,136.5,48.3z"/>
<path style="fill:#242530;" d="M155.8,36.8v-11c0.1-2.3-0.9-4.4-2.6-5.9v-0.1l6.7-3.1v7.1l0.3,0.1c2.5-2.8,5.4-6.9,9.4-6.9l-0.1,5.8
	h-0.2c-1.5-0.8-3.1-1.2-4.7-1.3c-1,0-2.9,1.6-4.5,3.7v11.6c0,4.1,0.1,6.4,1.3,9v0.1h-6.9v-0.1C155.6,43.3,155.8,40.9,155.8,36.8z"/>
<path style="fill:#5FE099;" d="M169.2,42.3c0-2.2,1.8-3.9,3.9-3.9c2.2,0,4,1.8,4,3.9s-1.8,3.9-4,3.9C171,46.2,169.2,44.4,169.2,42.3
	z"/>
</svg>
