<svg xmlns="http://www.w3.org/2000/svg" xmlns:xlink="http://www.w3.org/1999/xlink" viewBox="0 0 341 157"><defs><style>.a{fill:none;}.b{clip-path:url(#a);}.c{fill:#242530;}.d{fill:#5fe099;}</style><clipPath id="a"><circle class="a" cx="-532.308" cy="416.1" r="53.4"/></clipPath></defs><title>Zephyr_logo</title><path class="c" d="M87.75,99.071l26.7-41.555L102.6,57.87c-6.307.3-9.962,4.421-13.027,9.549l-.471-.177,2.77-10.668h28.469v.648L93.7,98.835l13.851-.412c6.189-.177,10.02-4.6,13.144-10.2l.472.176-2.889,11.317H87.75Z"/><path class="c" d="M137.956,100.6c-7.781,0-12.967-5.953-12.967-14.441,0-9.371,6.542-15.384,13.379-15.384a10.714,10.714,0,0,1,10.787,11.376H129.527a5.484,5.484,0,0,0-.058,1v1c0,7.958,3.772,12.673,10.432,12.673a10.705,10.705,0,0,0,9.077-4.421l.295.177A11.311,11.311,0,0,1,137.956,100.6Zm-8.311-19.392,14.735-.3v-.471c0-5.894-2.181-8.606-6.247-8.606C133.417,71.839,130.411,75.553,129.645,81.211Z"/><path class="c" d="M154.1,112.863c1.121-2.534,1.3-4.892,1.3-8.9V79.62a7.253,7.253,0,0,0-2.594-5.894v-.118l6.661-3.124v5.245l.413.06a11.649,11.649,0,0,1,9.784-5.011c7.014,0,11.907,5.836,11.907,14.323,0,8.193-4.775,15.5-14.618,15.5a13.926,13.926,0,0,1-7.25-1.768V103.9c0,4.008.118,6.366,1.3,8.959v.118h-6.9Zm22.752-26.877c0-8.311-4.126-12.378-9.548-12.378a9.788,9.788,0,0,0-7.6,3.418V94.061c1.592,3.831,4.539,5.481,7.663,5.481C173.021,99.542,176.852,94.3,176.852,85.986Z"/><path class="c" d="M186.424,99.6c1.12-2.534,1.3-4.892,1.3-8.959V62.586a7.256,7.256,0,0,0-2.594-5.895v-.117l6.9-2.771V76.024c2.83-3.3,6.131-5.246,10.139-5.246,5.422,0,8.252,3.242,8.252,8.606V90.642c0,4.126.058,6.484,1.3,8.959v.118h-6.9V99.6c1.12-2.593,1.3-5.01,1.3-8.959V80.327c0-3.595-1.592-6.66-6.013-6.66a11.282,11.282,0,0,0-8.075,3.477v13.5c0,4.008.119,6.366,1.356,8.959v.118h-6.955Z"/><path class="c" d="M224.277,102.077,225.1,99.9,216.85,78.205c-1.415-3.595-2.063-5.128-3.537-6.424v-.118h8.311v.118c-1,1.119-1.415,3.241-.059,6.778L227.342,94,233.059,78.8c1.238-3.36.707-5.836-.767-7.014v-.118h6.19v.118c-1.887,1.709-2.771,3.182-4.009,6.66l-9.725,25.168c-2.652,6.837-5.658,8.9-9.726,9.372l-.118-4.361A9.956,9.956,0,0,0,224.277,102.077Z"/><path class="c" d="M243.574,90.642V79.62a7.253,7.253,0,0,0-2.594-5.894v-.118l6.66-3.124v7.132l.3.059c2.535-2.83,5.423-6.9,9.431-6.9l-.059,5.836h-.177a10.97,10.97,0,0,0-4.715-1.3c-1,0-2.947,1.592-4.538,3.654V90.583c0,4.067.117,6.425,1.3,9.018v.118h-6.9V99.6C243.4,97.067,243.574,94.709,243.574,90.642Z"/><path class="d" d="M256.973,96.065a3.949,3.949,0,1,1,7.9,0,3.949,3.949,0,1,1-7.9,0Z"/></svg>